<svg width="20" height="20" viewBox="0 0 20 20" fill="none" xmlns="http://www.w3.org/2000/svg">
<path d="M13.3337 18.3334H15.0003C15.4424 18.3334 15.8663 18.1578 16.1788 17.8453C16.4914 17.5327 16.667 17.1088 16.667 16.6667V5.83341L12.5003 1.66675H5.00033C4.5583 1.66675 4.13437 1.84234 3.82181 2.1549C3.50925 2.46746 3.33366 2.89139 3.33366 3.33341V5.83341M11.667 1.66675V5.00008C11.667 5.44211 11.8426 5.86603 12.1551 6.17859C12.4677 6.49115 12.8916 6.66675 13.3337 6.66675H16.667M7.91699 14.5834L6.66699 13.5417V11.6667M11.667 13.3334C11.667 16.0948 9.42842 18.3334 6.66699 18.3334C3.90557 18.3334 1.66699 16.0948 1.66699 13.3334C1.66699 10.572 3.90557 8.33341 6.66699 8.33341C9.42842 8.33341 11.667 10.572 11.667 13.3334Z" stroke="#ffffff" stroke-opacity="0.8" stroke-width="1.25" stroke-linecap="round" stroke-linejoin="round"/>
</svg>
