<svg width="20" height="20" viewBox="0 0 20 20" fill="none" xmlns="http://www.w3.org/2000/svg">
<path d="M6.66634 17.5H13.333M9.99967 15V17.5M4.28301 9.16667C4.15367 8.73143 4.12774 8.27201 4.20726 7.82499C4.28679 7.37796 4.46958 6.95568 4.74109 6.59175C5.0126 6.22783 5.36532 5.93232 5.77117 5.72875C6.17702 5.52518 6.6248 5.41918 7.07884 5.41918C7.53289 5.41918 7.98066 5.52518 8.38651 5.72875C8.79236 5.93232 9.14509 6.22783 9.41659 6.59175C9.6881 6.95568 9.87089 7.37796 9.95042 7.82499C10.0299 8.27201 10.004 8.73143 9.87467 9.16667M10.1163 9.16667C9.98701 8.73143 9.96107 8.27201 10.0406 7.82499C10.1201 7.37796 10.3029 6.95568 10.5744 6.59175C10.8459 6.22783 11.1987 5.93232 11.6045 5.72875C12.0104 5.52518 12.4581 5.41918 12.9122 5.41918C13.3662 5.41918 13.814 5.52518 14.2198 5.72875C14.6257 5.93232 14.9784 6.22783 15.2499 6.59175C15.5214 6.95568 15.7042 7.37796 15.7838 7.82499C15.8633 8.27201 15.8373 8.73143 15.708 9.16667M12.9163 5.41667C12.9163 5.03364 12.8409 4.65437 12.6943 4.30051C12.5477 3.94664 12.3329 3.62511 12.0621 3.35427C11.7912 3.08343 11.4697 2.86859 11.1158 2.72202C10.762 2.57544 10.3827 2.5 9.99967 2.5C9.61665 2.5 9.23738 2.57544 8.88351 2.72202C8.52965 2.86859 8.20812 3.08343 7.93728 3.35427C7.66644 3.62511 7.4516 3.94664 7.30503 4.30051C7.15845 4.65437 7.08301 5.03364 7.08301 5.41667M9.99967 14.1667C14.1663 14.1667 16.6663 11.925 16.6663 9.16667H3.33301C3.33301 11.925 5.83301 14.1667 9.99967 14.1667Z" stroke="#ffffff" stroke-opacity="0.8" stroke-width="1.25" stroke-linecap="round" stroke-linejoin="round"/>
</svg>
